<svg xmlns="http://www.w3.org/2000/svg" xmlns:xlink="http://www.w3.org/1999/xlink" width="1080" zoomAndPan="magnify" viewBox="0 0 810 809.999993" height="1080" preserveAspectRatio="xMidYMid meet" version="1.0"><defs><clipPath id="0afacf899f"><path d="M 641.589844 405 L 729 405 L 729 492.410156 L 641.589844 492.410156 Z M 641.589844 405 " clip-rule="nonzero"/></clipPath><clipPath id="86194a68e5"><path d="M 685.292969 405 C 661.15625 405 641.589844 424.566406 641.589844 448.707031 C 641.589844 472.84375 661.15625 492.410156 685.292969 492.410156 C 709.433594 492.410156 729 472.84375 729 448.707031 C 729 424.566406 709.433594 405 685.292969 405 Z M 685.292969 405 " clip-rule="nonzero"/></clipPath><clipPath id="f9020d7350"><path d="M 64.964844 421.273438 L 583.214844 421.273438 L 583.214844 780.523438 L 64.964844 780.523438 Z M 64.964844 421.273438 " clip-rule="nonzero"/></clipPath><clipPath id="e3804cd719"><path d="M 64.214844 17.476562 L 583.214844 17.476562 L 583.214844 297 L 64.214844 297 Z M 64.214844 17.476562 " clip-rule="nonzero"/></clipPath><clipPath id="58499669f4"><path d="M 89 39.417969 L 559.679688 39.417969 L 559.679688 293 L 89 293 Z M 89 39.417969 " clip-rule="nonzero"/></clipPath></defs><g clip-path="url(#0afacf899f)"><g clip-path="url(#86194a68e5)"><path fill="#39553c" d="M 641.589844 405 L 729 405 L 729 492.410156 L 641.589844 492.410156 Z M 641.589844 405 " fill-opacity="1" fill-rule="nonzero"/></g></g><g clip-path="url(#f9020d7350)"><path stroke-linecap="butt" transform="matrix(0.75, 0, 0, 0.75, 64.964494, 421.273127)" fill="none" stroke-linejoin="miter" d="M 0.000466558 0.000414258 L 691.385918 0.000414258 L 691.385918 479.187938 L 0.000466558 479.187938 Z M 0.000466558 0.000414258 " stroke="#39553c" stroke-width="134" stroke-opacity="1" stroke-miterlimit="4"/></g><path stroke-linecap="butt" transform="matrix(0.235894, 0.711937, -0.711937, 0.235894, 159.162051, 148.245188)" fill="none" stroke-linejoin="miter" d="M 0.00217022 40.501407 L 828.344066 40.499628 " stroke="#39553c" stroke-width="81" stroke-opacity="1" stroke-miterlimit="4"/><path stroke-linecap="butt" transform="matrix(-0.224644, 0.715566, -0.715566, -0.224644, 550.272816, 160.691981)" fill="none" stroke-linejoin="miter" d="M -0.000406289 40.499315 L 828.342623 40.498614 " stroke="#39553c" stroke-width="81" stroke-opacity="1" stroke-miterlimit="4"/><path stroke-linecap="butt" transform="matrix(0, 0.75, -0.75, 0, 124.962991, 266.811861)" fill="none" stroke-linejoin="miter" d="M 0.000852031 40.497531 L 685.141511 40.497531 " stroke="#39553c" stroke-width="81" stroke-opacity="1" stroke-miterlimit="4"/><path stroke-linecap="butt" transform="matrix(0, 0.75, -0.75, 0, 583.509238, 266.811861)" fill="none" stroke-linejoin="miter" d="M 0.000852031 40.501903 L 685.141511 40.501903 " stroke="#39553c" stroke-width="81" stroke-opacity="1" stroke-miterlimit="4"/><g clip-path="url(#e3804cd719)"><path fill="#39553c" d="M 563.195312 296.890625 C 562.535156 296.890625 561.878906 296.859375 561.226562 296.796875 C 560.570312 296.730469 559.921875 296.632812 559.277344 296.507812 C 558.632812 296.378906 557.996094 296.21875 557.367188 296.027344 C 556.738281 295.835938 556.117188 295.617188 555.511719 295.363281 C 554.90625 295.113281 554.3125 294.832031 553.730469 294.523438 C 553.152344 294.210938 552.589844 293.875 552.042969 293.507812 C 551.496094 293.144531 550.96875 292.753906 550.460938 292.335938 C 549.949219 291.917969 549.464844 291.476562 549 291.011719 C 548.535156 290.546875 548.09375 290.0625 547.675781 289.554688 C 547.257812 289.042969 546.867188 288.515625 546.503906 287.96875 C 546.136719 287.425781 545.800781 286.859375 545.492188 286.28125 C 545.179688 285.699219 544.898438 285.109375 544.648438 284.5 C 544.394531 283.894531 544.175781 283.273438 543.984375 282.644531 C 543.792969 282.015625 543.632812 281.378906 543.503906 280.734375 C 543.378906 280.089844 543.28125 279.441406 543.214844 278.785156 C 543.152344 278.132812 543.121094 277.476562 543.121094 276.816406 C 543.121094 155.957031 444.785156 57.632812 323.917969 57.632812 C 203.046875 57.632812 104.734375 155.957031 104.734375 276.816406 C 104.734375 277.476562 104.703125 278.132812 104.636719 278.785156 C 104.574219 279.441406 104.476562 280.089844 104.347656 280.734375 C 104.21875 281.378906 104.058594 282.019531 103.867188 282.648438 C 103.679688 283.277344 103.457031 283.894531 103.203125 284.503906 C 102.953125 285.109375 102.671875 285.703125 102.363281 286.285156 C 102.050781 286.863281 101.714844 287.425781 101.347656 287.972656 C 100.984375 288.519531 100.59375 289.046875 100.175781 289.558594 C 99.757812 290.066406 99.316406 290.550781 98.851562 291.015625 C 98.386719 291.480469 97.902344 291.921875 97.390625 292.339844 C 96.882812 292.757812 96.355469 293.148438 95.808594 293.515625 C 95.261719 293.878906 94.699219 294.21875 94.117188 294.527344 C 93.539062 294.835938 92.945312 295.117188 92.335938 295.371094 C 91.730469 295.621094 91.113281 295.84375 90.480469 296.035156 C 89.851562 296.222656 89.214844 296.382812 88.570312 296.511719 C 87.925781 296.640625 87.277344 296.738281 86.621094 296.800781 C 85.96875 296.867188 85.3125 296.898438 84.652344 296.898438 C 83.996094 296.898438 83.339844 296.867188 82.683594 296.800781 C 82.03125 296.738281 81.382812 296.640625 80.734375 296.511719 C 80.089844 296.382812 79.453125 296.222656 78.824219 296.035156 C 78.195312 295.84375 77.578125 295.621094 76.96875 295.371094 C 76.363281 295.117188 75.769531 294.835938 75.1875 294.527344 C 74.609375 294.21875 74.042969 293.878906 73.496094 293.515625 C 72.949219 293.148438 72.421875 292.757812 71.914062 292.339844 C 71.40625 291.921875 70.917969 291.480469 70.453125 291.015625 C 69.988281 290.550781 69.546875 290.066406 69.132812 289.558594 C 68.714844 289.046875 68.324219 288.519531 67.957031 287.972656 C 67.59375 287.425781 67.253906 286.863281 66.945312 286.285156 C 66.632812 285.703125 66.355469 285.109375 66.101562 284.503906 C 65.851562 283.894531 65.628906 283.277344 65.4375 282.648438 C 65.246094 282.019531 65.085938 281.378906 64.960938 280.734375 C 64.832031 280.089844 64.734375 279.441406 64.671875 278.785156 C 64.605469 278.132812 64.574219 277.476562 64.574219 276.816406 C 64.574219 133.816406 180.917969 17.476562 323.917969 17.476562 C 466.917969 17.476562 583.265625 133.816406 583.265625 276.816406 C 583.265625 277.476562 583.234375 278.132812 583.171875 278.785156 C 583.105469 279.441406 583.007812 280.089844 582.882812 280.734375 C 582.753906 281.378906 582.59375 282.015625 582.402344 282.644531 C 582.210938 283.273438 581.992188 283.894531 581.738281 284.5 C 581.488281 285.109375 581.207031 285.699219 580.898438 286.28125 C 580.585938 286.859375 580.25 287.425781 579.882812 287.96875 C 579.519531 288.515625 579.128906 289.042969 578.710938 289.554688 C 578.292969 290.0625 577.851562 290.546875 577.386719 291.011719 C 576.921875 291.476562 576.4375 291.917969 575.929688 292.335938 C 575.421875 292.753906 574.890625 293.144531 574.347656 293.507812 C 573.800781 293.875 573.234375 294.210938 572.65625 294.523438 C 572.078125 294.832031 571.484375 295.113281 570.875 295.363281 C 570.269531 295.617188 569.648438 295.835938 569.019531 296.027344 C 568.390625 296.21875 567.753906 296.378906 567.109375 296.507812 C 566.464844 296.632812 565.816406 296.730469 565.160156 296.796875 C 564.507812 296.859375 563.851562 296.890625 563.195312 296.890625 Z M 563.195312 296.890625 " fill-opacity="1" fill-rule="nonzero"/></g><g clip-path="url(#58499669f4)"><path fill="#39553c" d="M 541.078125 292.75 C 540.480469 292.75 539.886719 292.722656 539.292969 292.664062 C 538.699219 292.605469 538.109375 292.515625 537.527344 292.402344 C 536.941406 292.285156 536.363281 292.140625 535.792969 291.96875 C 535.222656 291.792969 534.664062 291.59375 534.113281 291.363281 C 533.5625 291.136719 533.023438 290.882812 532.496094 290.601562 C 531.972656 290.320312 531.460938 290.015625 530.964844 289.683594 C 530.46875 289.351562 529.992188 288.996094 529.53125 288.621094 C 529.070312 288.242188 528.628906 287.839844 528.207031 287.421875 C 527.785156 287 527.386719 286.558594 527.007812 286.097656 C 526.628906 285.636719 526.277344 285.15625 525.945312 284.664062 C 525.613281 284.167969 525.308594 283.65625 525.027344 283.128906 C 524.746094 282.605469 524.492188 282.066406 524.261719 281.515625 C 524.035156 280.964844 523.835938 280.40625 523.660156 279.835938 C 523.488281 279.265625 523.34375 278.6875 523.226562 278.101562 C 523.109375 277.515625 523.023438 276.929688 522.964844 276.335938 C 522.90625 275.742188 522.878906 275.148438 522.878906 274.550781 C 522.878906 164.972656 433.722656 75.832031 324.140625 75.832031 C 214.554688 75.832031 125.417969 164.972656 125.417969 274.550781 C 125.417969 275.148438 125.390625 275.742188 125.332031 276.335938 C 125.273438 276.929688 125.183594 277.519531 125.070312 278.101562 C 124.953125 278.6875 124.808594 279.265625 124.636719 279.835938 C 124.460938 280.40625 124.261719 280.96875 124.03125 281.519531 C 123.804688 282.070312 123.550781 282.605469 123.269531 283.132812 C 122.988281 283.660156 122.683594 284.167969 122.351562 284.664062 C 122.019531 285.160156 121.664062 285.640625 121.285156 286.101562 C 120.90625 286.5625 120.507812 287.003906 120.085938 287.425781 C 119.664062 287.847656 119.222656 288.246094 118.761719 288.625 C 118.300781 289.003906 117.824219 289.355469 117.328125 289.6875 C 116.832031 290.019531 116.320312 290.324219 115.796875 290.605469 C 115.269531 290.886719 114.730469 291.140625 114.179688 291.371094 C 113.628906 291.597656 113.070312 291.800781 112.5 291.972656 C 111.925781 292.144531 111.351562 292.289062 110.765625 292.40625 C 110.179688 292.523438 109.589844 292.609375 108.996094 292.667969 C 108.40625 292.726562 107.808594 292.757812 107.214844 292.757812 C 106.617188 292.757812 106.023438 292.726562 105.429688 292.667969 C 104.835938 292.609375 104.246094 292.523438 103.660156 292.40625 C 103.078125 292.289062 102.5 292.144531 101.929688 291.972656 C 101.359375 291.800781 100.796875 291.597656 100.246094 291.371094 C 99.695312 291.140625 99.15625 290.886719 98.632812 290.605469 C 98.105469 290.324219 97.59375 290.019531 97.097656 289.6875 C 96.601562 289.355469 96.125 289.003906 95.664062 288.625 C 95.203125 288.246094 94.761719 287.847656 94.339844 287.425781 C 93.917969 287.003906 93.519531 286.5625 93.140625 286.101562 C 92.761719 285.640625 92.40625 285.160156 92.078125 284.664062 C 91.746094 284.167969 91.4375 283.660156 91.15625 283.132812 C 90.875 282.605469 90.621094 282.070312 90.394531 281.519531 C 90.164062 280.96875 89.964844 280.40625 89.792969 279.835938 C 89.617188 279.265625 89.472656 278.6875 89.359375 278.101562 C 89.242188 277.519531 89.152344 276.929688 89.097656 276.335938 C 89.039062 275.742188 89.007812 275.148438 89.007812 274.550781 C 89.007812 144.902344 194.488281 39.417969 324.140625 39.417969 C 453.789062 39.417969 559.277344 144.902344 559.277344 274.550781 C 559.277344 275.148438 559.246094 275.742188 559.1875 276.335938 C 559.128906 276.929688 559.042969 277.515625 558.925781 278.101562 C 558.8125 278.6875 558.667969 279.265625 558.492188 279.835938 C 558.320312 280.40625 558.121094 280.964844 557.890625 281.515625 C 557.664062 282.066406 557.410156 282.605469 557.128906 283.128906 C 556.847656 283.65625 556.539062 284.167969 556.210938 284.664062 C 555.878906 285.15625 555.523438 285.636719 555.144531 286.097656 C 554.765625 286.558594 554.367188 287 553.945312 287.421875 C 553.523438 287.839844 553.082031 288.242188 552.621094 288.621094 C 552.164062 288.996094 551.683594 289.351562 551.1875 289.683594 C 550.691406 290.015625 550.183594 290.320312 549.65625 290.601562 C 549.128906 290.882812 548.59375 291.136719 548.042969 291.367188 C 547.492188 291.59375 546.929688 291.792969 546.359375 291.96875 C 545.789062 292.140625 545.210938 292.285156 544.628906 292.402344 C 544.042969 292.515625 543.453125 292.605469 542.859375 292.664062 C 542.269531 292.722656 541.671875 292.75 541.078125 292.75 Z M 541.078125 292.75 " fill-opacity="1" fill-rule="nonzero"/></g></svg>