<svg width="206" height="203" viewBox="0 0 206 203" fill="none" xmlns="http://www.w3.org/2000/svg">
<g id="Frame" clip-path="url(#clip0_511_1077)">
<g id="Group">
<g id="OBJECTS">
<g id="Vector" style="mix-blend-mode:multiply" opacity="0.2">
<path d="M103.316 202.995C124.933 202.995 142.457 200.91 142.457 198.338C142.457 195.767 124.933 193.682 103.316 193.682C81.6995 193.682 64.1758 195.767 64.1758 198.338C64.1758 200.91 81.6995 202.995 103.316 202.995Z" fill="#513842"/>
</g>
<path id="Vector_2" d="M17.3193 70.2385C16.5051 70.2003 15.7099 69.9802 14.992 69.5943C11.415 67.8241 9.57979 63.4772 10.9771 60.0991C11.3318 59.2689 11.8647 58.5268 12.5381 57.9252C13.2115 57.3236 14.0089 56.8772 14.874 56.6176C15.7264 56.3085 16.6242 56.1423 17.5309 56.1259C18.351 56.106 19.1652 56.2691 19.9142 56.6034C20.6632 56.9377 21.3282 57.4348 21.8607 58.0584C22.4833 58.829 22.9322 59.7247 23.1767 60.6845C23.4213 61.6443 23.4557 62.6455 23.2777 63.6198C23.0559 65.0062 22.4929 66.3157 21.6393 67.4307C20.7438 68.606 19.3366 70.1746 17.4423 70.2385H17.3193Z" fill="#8F4DF5"/>
<path id="Vector_3" d="M17.5331 56.5095C21.366 56.5095 23.4817 59.9516 22.9158 63.5756C22.6982 64.8979 22.1574 66.1461 21.3414 67.2095C20.3573 68.5076 19.0584 69.8156 17.4052 69.8697H17.3019C16.5436 69.8353 15.8032 69.6284 15.137 69.2649C11.6633 67.5487 10.0002 63.3641 11.2992 60.2417C11.6345 59.4593 12.138 58.7602 12.7741 58.1943C13.4102 57.6283 14.1631 57.2092 14.9795 56.9668C15.7927 56.6742 16.6492 56.5196 17.5134 56.5095M17.5134 55.7719C16.5675 55.7809 15.6298 55.9471 14.7384 56.2636C13.823 56.5408 12.9795 57.0152 12.2672 57.6531C11.5548 58.2911 10.991 59.0773 10.6153 59.9565C9.13921 63.5018 11.063 68.07 14.8122 69.9189C15.5794 70.3326 16.4308 70.5664 17.3019 70.6024H17.4298C19.4766 70.5335 20.9674 68.8862 21.9072 67.652C22.7964 66.4899 23.386 65.1272 23.6244 63.6838C23.8138 62.6589 23.78 61.6053 23.5253 60.5947C23.2705 59.5841 22.8009 58.6402 22.1483 57.8273C21.5775 57.1677 20.8688 56.6413 20.0722 56.2853C19.2756 55.9293 18.4105 55.7524 17.538 55.7669L17.5134 55.7719Z" fill="#513842"/>
<g id="Vector_4" style="mix-blend-mode:multiply" opacity="0.2">
<path d="M22.9162 63.5756C22.6986 64.8979 22.1578 66.1461 21.3418 67.2095C20.3577 68.5076 19.0588 69.8156 17.4056 69.8697C16.6116 69.8554 15.833 69.6477 15.1374 69.2649C11.6637 67.5488 10.0006 63.3642 11.2996 60.2417C11.7082 61.1168 12.2928 61.8985 13.0167 62.5381C15.6835 64.8344 19.723 65.0606 22.9162 63.5756Z" fill="#513842"/>
</g>
<path id="Vector_5" d="M185.483 152.003C184.096 152.003 182.113 151.841 180.932 150.434C180.424 149.75 180.087 148.954 179.948 148.113C179.127 144.18 181.424 140.049 184.947 139.061C185.459 138.914 185.989 138.839 186.522 138.839C187.804 138.859 189.053 139.254 190.113 139.975C192.298 141.387 193.464 143.334 193.395 145.463C193.326 147.592 191.944 149.736 189.784 150.941C188.553 151.619 187.174 151.983 185.769 151.998L185.483 152.003Z" fill="#8F4DF5"/>
<path id="Vector_6" d="M186.514 139.208C187.725 139.229 188.903 139.604 189.904 140.285C194.711 143.388 193.442 148.467 189.599 150.611C188.422 151.262 187.101 151.61 185.756 151.624H185.486C183.911 151.624 182.214 151.373 181.21 150.183C180.73 149.55 180.412 148.809 180.285 148.025C179.483 144.224 181.761 140.324 185.018 139.405C185.498 139.269 185.995 139.199 186.494 139.198M186.494 138.461C185.927 138.461 185.362 138.54 184.817 138.697C181.107 139.739 178.701 144.081 179.562 148.177C179.713 149.081 180.085 149.934 180.644 150.66C181.928 152.185 184.019 152.362 185.486 152.362H185.746C187.214 152.345 188.654 151.965 189.938 151.255C192.207 149.987 193.663 147.769 193.737 145.473C193.811 143.176 192.586 141.146 190.293 139.661C189.172 138.9 187.853 138.485 186.499 138.466L186.494 138.461Z" fill="#513842"/>
<g id="Vector_7" style="mix-blend-mode:multiply" opacity="0.2">
<path d="M189.597 150.616C188.419 151.267 187.099 151.615 185.754 151.629C184.11 151.654 182.28 151.447 181.227 150.193C180.747 149.56 180.429 148.819 180.302 148.035C179.5 144.233 181.778 140.334 185.035 139.415C184.597 140.279 184.344 141.225 184.293 142.193C184.12 145.699 186.467 149.023 189.597 150.616Z" fill="#513842"/>
</g>
<path id="Vector_8" d="M181.665 59.2826C177.886 59.2826 174.511 56.6273 173.984 53.2295C173.856 52.3359 173.926 51.4252 174.188 50.5613C174.449 49.6974 174.897 48.9012 175.5 48.2286C177.33 46.0306 179.239 45.5684 180.518 45.5684C182.978 45.5684 185.256 47.2501 186.329 49.8562C186.856 51.155 187.052 52.5641 186.9 53.9572C186.747 55.4324 186.359 57.4977 184.774 58.5352C184.038 58.965 183.21 59.2113 182.358 59.2531C182.129 59.2728 181.897 59.2826 181.665 59.2826Z" fill="#FB634F"/>
<path id="Vector_9" d="M180.518 45.9371C182.855 45.9371 184.991 47.5795 185.984 49.9988C186.496 51.243 186.684 52.5963 186.531 53.9326C186.363 55.5602 185.94 57.3452 184.562 58.2402C183.877 58.6393 183.106 58.867 182.314 58.904C182.093 58.904 181.876 58.904 181.655 58.904C178.053 58.904 174.825 56.3175 174.338 53.1655C174.218 52.3231 174.284 51.4645 174.533 50.6506C174.781 49.8366 175.205 49.087 175.775 48.4548C177.251 46.6796 178.924 45.9273 180.508 45.9273M180.508 45.1897C179.15 45.1897 177.128 45.6814 175.209 47.9827C174.572 48.6952 174.098 49.5386 173.822 50.4535C173.546 51.3684 173.474 52.3327 173.61 53.2786C174.161 56.8486 177.699 59.6416 181.655 59.6416C181.896 59.6416 182.147 59.6416 182.378 59.6121C183.298 59.5724 184.195 59.309 184.991 58.845C186.708 57.7189 187.121 55.5406 187.283 53.9965C187.441 52.5412 187.234 51.0697 186.683 49.7136C185.556 46.9747 183.141 45.1995 180.533 45.1995L180.508 45.1897Z" fill="#513842"/>
<g id="Vector_10" style="mix-blend-mode:multiply" opacity="0.2">
<path d="M185.978 49.9988C186.49 51.2429 186.678 52.5963 186.524 53.9326C186.357 55.5602 185.934 57.3452 184.556 58.2401C183.871 58.6393 183.1 58.867 182.308 58.904C178.445 59.2383 174.849 56.5338 174.332 53.1901C175.136 53.7254 176.042 54.0887 176.994 54.2571C180.468 54.8275 184.04 52.9246 185.978 49.9988Z" fill="#513842"/>
</g>
<path id="Vector_11" d="M8.19223 92.4791C4.20685 92.4791 0.629844 89.4009 0.383833 85.7572C0.335395 84.8535 0.48661 83.9501 0.826744 83.1114C1.16688 82.2726 1.68759 81.5189 2.35192 80.9039C3.79847 79.4287 5.44675 78.6665 7.1147 78.6665C9.73226 78.6665 12.0989 80.5941 12.9944 83.4609C13.4091 84.7983 13.4835 86.218 13.2109 87.5914C12.9304 89.042 12.3695 91.0728 10.7015 91.9727C9.93137 92.3269 9.08869 92.4953 8.24143 92.4644L8.19223 92.4791Z" fill="#FB634F"/>
<path id="Vector_12" d="M7.09172 79.0552C9.60103 79.0552 11.7905 80.9385 12.6221 83.5889C13.0138 84.8632 13.0848 86.2144 12.8287 87.5227C12.5187 89.1307 11.9431 90.8714 10.5014 91.6483C9.78359 91.984 8.99558 92.1425 8.20369 92.1106C4.33147 92.1106 0.990637 89.1061 0.759387 85.7181C0.713502 84.8685 0.854483 84.0192 1.17241 83.23C1.49033 82.4408 1.97748 81.7308 2.59955 81.1499C4.07562 79.6748 5.64517 79.0257 7.10156 79.0257M7.10156 78.2881C5.33028 78.2881 3.59344 79.0994 2.07801 80.6336C1.38105 81.2883 0.836146 82.0876 0.481663 82.9754C0.12718 83.8632 -0.0282643 84.8179 0.0262724 85.7722C0.282124 89.6027 4.03134 92.8383 8.20369 92.8383C9.12065 92.8697 10.0318 92.6808 10.8606 92.2876C12.6663 91.3041 13.2666 89.1799 13.5618 87.6555C13.8446 86.2198 13.7669 84.7364 13.3355 83.3381C12.3908 80.3189 9.89132 78.2881 7.10156 78.2881Z" fill="#513842"/>
<g id="Vector_13" style="mix-blend-mode:multiply" opacity="0.2">
<path d="M12.6225 83.5691C13.0143 84.8434 13.0853 86.1946 12.8292 87.5029C12.5192 89.1109 11.9435 90.8516 10.5019 91.6236C9.78734 91.9717 8.99866 92.1405 8.20414 92.1153C4.327 92.1153 0.981251 89.1109 0.75 85.7229C1.50586 86.3275 2.37859 86.7694 3.31344 87.021C6.70347 87.9061 10.4232 86.3179 12.6225 83.5691Z" fill="#513842"/>
</g>
<path id="Vector_14" d="M61.987 14.2504C60.1813 14.2504 58.4986 13.1342 57.9918 11.5901C57.8409 11.1124 57.7961 10.6074 57.8607 10.1105C57.9253 9.61369 58.0977 9.13692 58.3657 8.71353C59.0988 7.46454 60.1616 6.77612 61.3621 6.77612C61.9906 6.79935 62.603 6.98104 63.1424 7.3043C63.6818 7.62755 64.1306 8.08188 64.4471 8.62502C64.8473 9.2798 65.0804 10.0227 65.1261 10.7886C65.1753 11.6049 65.1261 12.7555 64.3586 13.4931C63.9918 13.7993 63.5562 14.0119 63.0891 14.1127C62.7294 14.2066 62.3588 14.2529 61.987 14.2504Z" fill="#52D5D4"/>
<path id="Vector_15" d="M61.383 7.14475C61.9466 7.16904 62.4948 7.33555 62.9766 7.62875C63.4584 7.92195 63.8581 8.3323 64.1383 8.82154C64.5037 9.41656 64.7182 10.0917 64.7632 10.7884C64.8124 11.649 64.7632 12.6128 64.1137 13.1979C63.7926 13.465 63.4108 13.649 63.0018 13.7339C62.68 13.8151 62.3495 13.8564 62.0177 13.8568C61.2366 13.8751 60.4686 13.654 59.8168 13.2233C59.1651 12.7926 58.6608 12.1729 58.3718 11.4474C58.2388 11.0194 58.2007 10.5677 58.2602 10.1235C58.3196 9.67938 58.4753 9.25353 58.7162 8.87563C59.4346 7.64631 60.4236 7.12016 61.3928 7.12016M61.3928 6.38257C60.0545 6.38257 58.8786 7.13983 58.0766 8.50683C57.7812 8.97471 57.5921 9.50158 57.5223 10.0504C57.4526 10.5992 57.5041 11.1566 57.6732 11.6834C57.9979 12.5617 58.5874 13.3177 59.3603 13.847C60.1332 14.3764 61.0514 14.653 61.9882 14.6387C62.3848 14.6393 62.7799 14.5897 63.1641 14.4912C63.6924 14.3764 64.1842 14.1332 64.5959 13.7831C65.5012 12.9521 65.5308 11.6736 65.4766 10.7884C65.4328 9.96134 65.1824 9.15836 64.7484 8.45274C64.4007 7.85737 63.908 7.35947 63.3162 7.00529C62.7244 6.65111 62.0527 6.45213 61.3633 6.42682L61.3928 6.38257Z" fill="#513842"/>
<g id="Vector_16" style="mix-blend-mode:multiply" opacity="0.2">
<path d="M64.1357 8.82153C64.5011 9.41655 64.7156 10.0917 64.7606 10.7884C64.8098 11.649 64.7606 12.6128 64.1111 13.1979C63.79 13.4649 63.4082 13.649 62.9991 13.7339C61.0311 14.2256 58.9203 13.1438 58.3594 11.4474C58.8239 11.6563 59.3261 11.7684 59.8354 11.7768C60.7574 11.7368 61.6495 11.4385 62.4099 10.9159C63.1703 10.3934 63.7684 9.6676 64.1357 8.82153Z" fill="#513842"/>
</g>
<path id="Vector_17" d="M194.224 128.906C192.419 128.906 190.736 127.785 190.229 126.241C190.079 125.764 190.035 125.26 190.099 124.764C190.164 124.268 190.336 123.792 190.603 123.37C191.336 122.121 192.399 121.432 193.594 121.432C194.221 121.457 194.832 121.639 195.37 121.962C195.907 122.285 196.354 122.739 196.67 123.281C197.071 123.935 197.303 124.679 197.344 125.445C197.393 126.256 197.344 127.412 196.581 128.144C196.219 128.45 195.789 128.664 195.326 128.769C194.966 128.86 194.596 128.906 194.224 128.906Z" fill="#52D5D4"/>
<path id="Vector_18" d="M193.593 121.801C194.157 121.824 194.706 121.989 195.189 122.281C195.672 122.574 196.072 122.984 196.353 123.473C196.722 124.075 196.937 124.759 196.978 125.464C197.027 126.325 196.978 127.294 196.329 127.874C196.007 128.14 195.625 128.324 195.217 128.41C194.895 128.493 194.565 128.536 194.233 128.538C193.451 128.556 192.683 128.335 192.032 127.904C191.38 127.473 190.876 126.854 190.587 126.128C190.452 125.701 190.413 125.249 190.473 124.804C190.532 124.36 190.689 123.934 190.931 123.557C191.649 122.322 192.638 121.801 193.603 121.801M193.603 121.063C192.269 121.063 191.093 121.816 190.291 123.183C189.996 123.651 189.807 124.178 189.737 124.726C189.667 125.275 189.719 125.833 189.888 126.359C190.22 127.236 190.817 127.987 191.595 128.509C192.374 129.032 193.295 129.299 194.233 129.275C194.629 129.274 195.024 129.223 195.408 129.123C195.937 129.008 196.429 128.765 196.84 128.415C197.741 127.584 197.775 126.31 197.721 125.42C197.674 124.594 197.424 123.791 196.993 123.084C196.644 122.49 196.15 121.993 195.557 121.639C194.965 121.286 194.292 121.088 193.603 121.063Z" fill="#513842"/>
<g id="Vector_19" style="mix-blend-mode:multiply" opacity="0.2">
<path d="M196.354 123.473C196.724 124.075 196.938 124.759 196.979 125.464C197.029 126.325 196.979 127.294 196.33 127.874C196.008 128.14 195.627 128.324 195.218 128.41C193.25 128.902 191.139 127.82 190.578 126.128C191.042 126.338 191.545 126.448 192.054 126.453C193.899 126.463 195.592 125.164 196.354 123.473Z" fill="#513842"/>
</g>
<path id="Vector_20" d="M147.298 17.1809C146.91 17.1798 146.523 17.1319 146.147 17.0383C145.355 16.8416 144.253 16.4679 143.795 15.4942C143.611 15.0532 143.538 14.5735 143.583 14.0977C143.697 11.9095 145.497 10.041 147.52 10.0115H147.574C148.064 10.019 148.548 10.1312 148.992 10.3407C149.436 10.5502 149.829 10.852 150.147 11.226C151.131 12.2882 151.456 13.4929 151.131 14.6239C150.925 15.2236 150.568 15.7604 150.095 16.1831C149.623 16.6058 149.049 16.9003 148.43 17.0383C148.06 17.1344 147.68 17.1823 147.298 17.1809Z" fill="#52D5D4"/>
<path id="Vector_21" d="M147.563 10.3805C148.004 10.3866 148.438 10.4878 148.836 10.677C149.235 10.8662 149.587 11.1391 149.87 11.477C151.892 13.6996 150.564 16.1091 148.32 16.6844C147.986 16.7675 147.642 16.8104 147.297 16.8123C146.939 16.8109 146.582 16.7663 146.234 16.6795C145.398 16.4681 144.492 16.1189 144.128 15.342C143.97 14.9545 143.907 14.5344 143.946 14.1176C144.055 12.0769 145.732 10.4051 147.518 10.3805H147.563ZM147.563 9.64289H147.504C145.304 9.6724 143.336 11.7032 143.213 14.0684C143.163 14.6068 143.248 15.1492 143.459 15.6469C143.981 16.7582 145.191 17.1712 146.052 17.3827C146.459 17.4858 146.877 17.5386 147.297 17.54C147.704 17.5392 148.108 17.488 148.502 17.3876C149.181 17.2326 149.809 16.9062 150.326 16.4396C150.843 15.973 151.232 15.3818 151.455 14.7224C151.833 13.4587 151.455 12.1261 150.412 10.9706C150.059 10.557 149.622 10.2236 149.13 9.9929C148.637 9.76219 148.101 9.6395 147.558 9.63306L147.563 9.64289Z" fill="#513842"/>
<g id="Vector_22" style="mix-blend-mode:multiply" opacity="0.2">
<path d="M148.323 16.6843C147.638 16.8564 146.921 16.8564 146.237 16.6843C145.4 16.4728 144.495 16.1237 144.131 15.3468C143.972 14.9593 143.91 14.5392 143.949 14.1224C144.057 12.0817 145.735 10.4098 147.521 10.3853C147.181 10.7617 146.924 11.2058 146.768 11.6883C146.53 12.5829 146.55 13.5263 146.825 14.4101C147.1 15.2939 147.62 16.0822 148.323 16.6843Z" fill="#513842"/>
</g>
<path id="Vector_23" d="M30.2227 161.311V156.62" stroke="#513842" stroke-width="1.5" stroke-linecap="round" stroke-linejoin="round"/>
<path id="Vector_24" d="M27.8711 158.966H32.5699" stroke="#513842" stroke-width="1.5" stroke-linecap="round" stroke-linejoin="round"/>
<path id="Vector_25" d="M8.91406 18.2137V12.6965" stroke="#513842" stroke-width="1.5" stroke-linecap="round" stroke-linejoin="round"/>
<path id="Vector_26" d="M6.15234 15.4551H11.6679" stroke="#513842" stroke-width="1.5" stroke-linecap="round" stroke-linejoin="round"/>
<path id="Vector_27" d="M160.332 176.388V170.875" stroke="#513842" stroke-width="1.5" stroke-linecap="round" stroke-linejoin="round"/>
<path id="Vector_28" d="M157.57 173.634H163.091" stroke="#513842" stroke-width="1.5" stroke-linecap="round" stroke-linejoin="round"/>
<path id="Vector_29" d="M85.1562 17.6431V12.1309" stroke="#513842" stroke-width="1.5" stroke-linecap="round" stroke-linejoin="round"/>
<path id="Vector_30" d="M82.3945 14.8894H87.9101" stroke="#513842" stroke-width="1.5" stroke-linecap="round" stroke-linejoin="round"/>
<path id="Vector_31" d="M20.918 147.208V139.272" stroke="#513842" stroke-width="1.5" stroke-linecap="round" stroke-linejoin="round"/>
<path id="Vector_32" d="M16.9414 143.24H24.8876" stroke="#513842" stroke-width="1.5" stroke-linecap="round" stroke-linejoin="round"/>
<path id="Vector_33" d="M195.547 80.3828V72.4463" stroke="#513842" stroke-width="1.5" stroke-linecap="round" stroke-linejoin="round"/>
<path id="Vector_34" d="M191.574 76.4146H199.515" stroke="#513842" stroke-width="1.5" stroke-linecap="round" stroke-linejoin="round"/>
<path id="Vector_35" d="M175.223 15.5879V7.64648" stroke="#513842" stroke-width="1.5" stroke-linecap="round" stroke-linejoin="round"/>
<path id="Vector_36" d="M171.246 11.6145H179.192" stroke="#513842" stroke-width="1.5" stroke-linecap="round" stroke-linejoin="round"/>
<path id="Vector_37" d="M18.1758 27.3154V19.3789" stroke="#513842" stroke-width="1.5" stroke-linecap="round" stroke-linejoin="round"/>
<path id="Vector_38" d="M14.207 23.3472H22.1532" stroke="#513842" stroke-width="1.5" stroke-linecap="round" stroke-linejoin="round"/>
<path id="Vector_39" d="M36.294 38.4875C36.5793 38.4875 36.8106 38.2563 36.8106 37.9711C36.8106 37.686 36.5793 37.4548 36.294 37.4548C36.0086 37.4548 35.7773 37.686 35.7773 37.9711C35.7773 38.2563 36.0086 38.4875 36.294 38.4875Z" stroke="#513842" stroke-width="1.5" stroke-linecap="round" stroke-linejoin="round"/>
<path id="Vector_40" d="M13.1689 148.925C13.169 148.82 13.2005 148.719 13.2592 148.632C13.3179 148.546 13.4012 148.479 13.4982 148.441C13.5953 148.403 13.7016 148.394 13.8035 148.417C13.9054 148.439 13.9981 148.492 14.0698 148.568C14.1414 148.644 14.1886 148.739 14.2053 148.842C14.2219 148.945 14.2073 149.051 14.1632 149.145C14.1192 149.24 14.0478 149.319 13.9582 149.373C13.8687 149.426 13.7651 149.452 13.6609 149.446C13.5937 149.446 13.5272 149.432 13.4655 149.406C13.4038 149.379 13.3482 149.34 13.3021 149.292C13.256 149.243 13.2204 149.185 13.1975 149.122C13.1746 149.059 13.1648 148.992 13.1689 148.925Z" stroke="#513842" stroke-width="1.5" stroke-linecap="round" stroke-linejoin="round"/>
<path id="Vector_41" d="M160.944 31.7854C160.956 31.6565 161.017 31.5369 161.113 31.4499C161.208 31.3629 161.333 31.3147 161.463 31.3147C161.593 31.3147 161.717 31.3629 161.813 31.4499C161.909 31.5369 161.969 31.6565 161.982 31.7854C161.989 31.8577 161.981 31.9308 161.958 31.9998C161.935 32.0688 161.898 32.1323 161.849 32.1862C161.8 32.24 161.741 32.283 161.674 32.3125C161.608 32.3419 161.536 32.3572 161.463 32.3572C161.39 32.3572 161.318 32.3419 161.252 32.3125C161.185 32.283 161.126 32.24 161.077 32.1862C161.028 32.1323 160.991 32.0688 160.968 31.9998C160.945 31.9308 160.937 31.8577 160.944 31.7854Z" stroke="#513842" stroke-width="1.5" stroke-linecap="round" stroke-linejoin="round"/>
<path id="Vector_42" d="M90.4501 7.75458C90.4441 7.65022 90.4697 7.5465 90.5236 7.45688C90.5774 7.36726 90.6569 7.29588 90.7518 7.252C90.8468 7.20813 90.9527 7.19379 91.0559 7.21084C91.159 7.2279 91.2547 7.27556 91.3304 7.34765C91.4062 7.41973 91.4585 7.5129 91.4805 7.61507C91.5026 7.71723 91.4935 7.82367 91.4542 7.92056C91.415 8.01746 91.3476 8.10032 91.2606 8.15841C91.1737 8.2165 91.0713 8.24712 90.9667 8.2463C90.9 8.24964 90.8334 8.23939 90.7708 8.21617C90.7083 8.19296 90.6511 8.15727 90.6027 8.11127C90.5544 8.06527 90.516 8.00993 90.4897 7.94861C90.4635 7.88729 90.45 7.82127 90.4501 7.75458Z" stroke="#513842" stroke-width="1.5" stroke-linecap="round" stroke-linejoin="round"/>
<path id="Vector_43" d="M21.6392 78.4209C21.6517 78.292 21.7119 78.1724 21.8078 78.0854C21.9038 77.9984 22.0287 77.9502 22.1583 77.9502C22.2878 77.9502 22.4128 77.9984 22.5087 78.0854C22.6047 78.1724 22.6648 78.292 22.6773 78.4209C22.6844 78.4932 22.6762 78.5663 22.6534 78.6353C22.6305 78.7043 22.5934 78.7678 22.5445 78.8217C22.4956 78.8755 22.436 78.9185 22.3695 78.948C22.303 78.9774 22.231 78.9927 22.1583 78.9927C22.0855 78.9927 22.0136 78.9774 21.947 78.948C21.8805 78.9185 21.8209 78.8755 21.772 78.8217C21.7231 78.7678 21.686 78.7043 21.6632 78.6353C21.6403 78.5663 21.6321 78.4932 21.6392 78.4209Z" stroke="#513842" stroke-width="1.5" stroke-linecap="round" stroke-linejoin="round"/>
<path id="Vector_44" d="M8.91382 124.614C10.5986 124.614 11.9644 123.249 11.9644 121.565C11.9644 119.881 10.5986 118.516 8.91382 118.516C7.22905 118.516 5.86328 119.881 5.86328 121.565C5.86328 123.249 7.22905 124.614 8.91382 124.614Z" stroke="#513842" stroke-width="1.5" stroke-linecap="round" stroke-linejoin="round"/>
<path id="Vector_45" d="M164.77 158.966C164.77 158.651 164.863 158.343 165.038 158.081C165.213 157.819 165.462 157.614 165.754 157.494C166.045 157.373 166.365 157.342 166.675 157.403C166.984 157.465 167.268 157.616 167.491 157.839C167.714 158.062 167.866 158.346 167.927 158.655C167.989 158.964 167.957 159.284 167.836 159.575C167.716 159.867 167.512 160.115 167.249 160.29C166.987 160.466 166.679 160.559 166.364 160.559C165.941 160.559 165.535 160.391 165.236 160.092C164.937 159.794 164.77 159.388 164.77 158.966Z" fill="#513842"/>
<path id="Vector_46" d="M179.147 175.276C180.484 175.276 181.568 174.193 181.568 172.857C181.568 171.521 180.484 170.438 179.147 170.438C177.81 170.438 176.727 171.521 176.727 172.857C176.727 174.193 177.81 175.276 179.147 175.276Z" stroke="#513842" stroke-width="1.5" stroke-linecap="round" stroke-linejoin="round"/>
<path id="Vector_47" d="M203.557 67.5142C204.116 67.5142 204.57 67.0607 204.57 66.5012C204.57 65.9418 204.116 65.4883 203.557 65.4883C202.997 65.4883 202.543 65.9418 202.543 66.5012C202.543 67.0607 202.997 67.5142 203.557 67.5142Z" fill="#513842"/>
<path id="Vector_48" d="M198.645 87.7488C198.645 87.5485 198.704 87.3526 198.815 87.186C198.927 87.0194 199.085 86.8896 199.27 86.8129C199.455 86.7363 199.659 86.7162 199.856 86.7553C200.052 86.7944 200.233 86.8909 200.375 87.0325C200.517 87.1742 200.613 87.3547 200.652 87.5512C200.691 87.7477 200.671 87.9513 200.595 88.1364C200.518 88.3215 200.388 88.4797 200.221 88.591C200.055 88.7023 199.859 88.7618 199.658 88.7618C199.525 88.7624 199.393 88.7367 199.269 88.686C199.146 88.6353 199.034 88.5607 198.94 88.4665C198.846 88.3723 198.771 88.2604 198.72 88.1372C198.67 88.014 198.644 87.882 198.645 87.7488Z" fill="#513842"/>
<path id="Vector_49" d="M203.555 133.666C203.555 133.461 203.616 133.26 203.73 133.09C203.844 132.919 204.007 132.786 204.197 132.707C204.387 132.629 204.596 132.609 204.797 132.649C204.999 132.69 205.184 132.789 205.329 132.935C205.474 133.08 205.572 133.265 205.612 133.467C205.651 133.669 205.63 133.877 205.551 134.067C205.471 134.256 205.337 134.418 205.166 134.532C204.995 134.645 204.793 134.705 204.588 134.704C204.452 134.704 204.317 134.677 204.191 134.625C204.066 134.573 203.952 134.496 203.856 134.4C203.76 134.303 203.684 134.189 203.632 134.063C203.58 133.937 203.554 133.802 203.555 133.666Z" stroke="#513842" stroke-width="1.5" stroke-linecap="round" stroke-linejoin="round"/>
<path id="Vector_50" d="M29.5586 177.228C29.5576 177.066 29.605 176.907 29.6947 176.771C29.7844 176.635 29.9124 176.529 30.0624 176.466C30.2125 176.403 30.3778 176.386 30.5376 176.418C30.6973 176.449 30.8441 176.526 30.9595 176.641C31.0749 176.756 31.1537 176.902 31.1858 177.062C31.2179 177.221 31.2019 177.386 31.1399 177.537C31.0778 177.687 30.9725 177.816 30.8373 177.906C30.7021 177.996 30.543 178.045 30.3803 178.045C30.2726 178.045 30.1659 178.025 30.0662 177.984C29.9666 177.943 29.8759 177.883 29.7996 177.807C29.7232 177.732 29.6626 177.641 29.6212 177.542C29.5799 177.443 29.5586 177.336 29.5586 177.228Z" stroke="#513842" stroke-width="1.5" stroke-linecap="round" stroke-linejoin="round"/>
<path id="Vector_51" d="M1.68395 167.305C2.13503 167.305 2.5007 166.94 2.5007 166.489C2.5007 166.038 2.13503 165.673 1.68395 165.673C1.23286 165.673 0.867188 166.038 0.867188 166.489C0.867188 166.94 1.23286 167.305 1.68395 167.305Z" stroke="#513842" stroke-width="1.5" stroke-linecap="round" stroke-linejoin="round"/>
<path id="Vector_52" d="M51.6653 169.7C52.255 169.7 52.733 169.223 52.733 168.633C52.733 168.044 52.255 167.566 51.6653 167.566C51.0757 167.566 50.5977 168.044 50.5977 168.633C50.5977 169.223 51.0757 169.7 51.6653 169.7Z" fill="#513842"/>
<path id="Vector_53" d="M178.184 27.0991C178.184 26.9688 178.222 26.8414 178.295 26.733C178.367 26.6247 178.47 26.5402 178.591 26.4903C178.711 26.4405 178.844 26.4274 178.972 26.4528C179.099 26.4783 179.217 26.541 179.309 26.6332C179.401 26.7253 179.464 26.8427 179.49 26.9706C179.515 27.0984 179.502 27.2309 179.452 27.3513C179.402 27.4717 179.318 27.5746 179.209 27.647C179.101 27.7194 178.973 27.758 178.843 27.758C178.668 27.758 178.5 27.6886 178.377 27.565C178.253 27.4415 178.184 27.2739 178.184 27.0991Z" fill="#513842"/>
<path id="Vector_54" d="M81.7305 0.658915C81.7305 0.528594 81.7691 0.401199 81.8416 0.292841C81.914 0.184483 82.017 0.100028 82.1375 0.0501566C82.2579 0.000284871 82.3905 -0.012763 82.5184 0.0126614C82.6463 0.0380858 82.7638 0.100842 82.856 0.192993C82.9482 0.285144 83.011 0.40255 83.0364 0.530367C83.0619 0.658184 83.0488 0.79067 82.9989 0.911071C82.949 1.03147 82.8645 1.13438 82.7561 1.20678C82.6476 1.27919 82.5202 1.31783 82.3898 1.31783C82.3032 1.31783 82.2175 1.30079 82.1375 1.26767C82.0575 1.23456 81.9848 1.18603 81.9236 1.12484C81.8624 1.06365 81.8138 0.991014 81.7807 0.911071C81.7475 0.831127 81.7305 0.745445 81.7305 0.658915Z" fill="#513842"/>
<path id="Vector_55" d="M197.23 12.2736C197.594 12.2736 197.889 11.9786 197.889 11.6147C197.889 11.2508 197.594 10.9558 197.23 10.9558C196.865 10.9558 196.57 11.2508 196.57 11.6147C196.57 11.9786 196.865 12.2736 197.23 12.2736Z" fill="#513842"/>
<path id="Vector_56" d="M133.458 7.60714C134.496 7.60714 135.337 6.76615 135.337 5.72874C135.337 4.69133 134.496 3.85034 133.458 3.85034C132.42 3.85034 131.578 4.69133 131.578 5.72874C131.578 6.76615 132.42 7.60714 133.458 7.60714Z" fill="#513842"/>
<path id="Vector_57" d="M175.301 113.353C172.481 128.636 164.894 142.635 153.627 153.345C132.19 173.678 103.377 177.228 76.0104 168.058C63.4262 163.866 52.4465 155.888 44.5751 145.217C29.3175 124.663 25.9422 95.7738 35.7925 71.5513C39.274 62.9148 44.4425 55.0581 50.996 48.4401C51.5126 47.9188 52.0341 47.4123 52.5655 46.9108C60.8167 39.0776 71.9463 32.9506 82.7954 29.6511C94.6765 25.9996 107.343 25.7424 119.363 28.9086C134.984 32.9654 149.179 42.4213 160.146 55.28C163.133 58.7712 166.119 62.292 168.388 66.2849C175.871 79.4877 177.992 98.6209 175.301 113.353Z" fill="#FEE033" stroke="#513842" stroke-width="1.5" stroke-linecap="round" stroke-linejoin="round"/>
<g id="Vector_58" style="mix-blend-mode:multiply" opacity="0.2">
<path d="M52.3665 145.276C52.3665 145.276 56.1157 149.48 60.8883 148.226C65.6609 146.973 67.9882 141.067 63.4173 136.184C58.8464 131.301 55.3186 123.345 57.4786 121.073C59.6386 118.801 68.1653 123.232 77.2579 118.123C86.3505 113.014 89.342 104.846 87.7331 97.2195C86.1241 89.5928 48.8633 114.145 48.8633 114.145L52.3665 145.276Z" fill="#E83842"/>
</g>
<path id="Vector_59" d="M64.7569 112.758C51.0983 111.829 43.5999 100.721 44.8988 91.0828C45.2788 87.7382 46.7624 84.6154 49.1155 82.2071C53.2681 77.9438 59.94 75.731 67.212 73.356C77.2345 70.0811 84.0835 70.9416 88.0098 74.5607C90.0419 76.4342 91.2916 79.0453 91.8033 82.2022C94.0765 96.2656 84.6198 114.115 64.7569 112.758Z" fill="white" stroke="#513842" stroke-width="1.5" stroke-linecap="round" stroke-linejoin="round"/>
<path id="Vector_60" d="M71.5972 103.194C68.1404 103.19 64.8262 101.816 62.3819 99.373C59.9375 96.9301 58.5625 93.618 58.5586 90.1632C58.5575 89.6703 58.5854 89.1777 58.6423 88.688C59.0045 85.5077 60.5252 82.5719 62.9145 80.4404C65.3038 78.3089 68.3945 77.1309 71.5972 77.1309C74.8 77.1309 77.8906 78.3089 80.2799 80.4404C82.6692 82.5719 84.19 85.5077 84.5522 88.688C84.6066 89.1779 84.6345 89.6703 84.6358 90.1632C84.6319 93.618 83.257 96.9301 80.8126 99.373C78.3682 101.816 75.0541 103.19 71.5972 103.194Z" fill="#8F4DF5"/>
<path id="Vector_61" d="M71.5972 77.5013C74.103 77.5013 76.5526 78.2439 78.6361 79.6352C80.7196 81.0265 82.3435 83.0041 83.3024 85.3177C84.2613 87.6314 84.5122 90.1773 84.0234 92.6335C83.5345 95.0897 82.3278 97.3458 80.556 99.1166C78.7841 100.887 76.5266 102.093 74.0689 102.582C71.6113 103.071 69.0638 102.82 66.7488 101.861C64.4337 100.903 62.455 99.2801 61.0628 97.1979C59.6707 95.1156 58.9276 92.6676 58.9276 90.1633C58.9265 89.6901 58.9528 89.2172 59.0064 88.7471C59.3548 85.6535 60.8313 82.7967 63.1538 80.7222C65.4764 78.6477 68.4823 77.5011 71.5972 77.5013ZM71.5972 76.7637C68.8761 76.7607 66.2184 77.5843 63.9764 79.1254C61.7344 80.6664 60.014 82.8521 59.0433 85.3926C58.0726 87.9331 57.8974 90.7085 58.541 93.3508C59.1846 95.9931 60.6166 98.3775 62.6471 100.188C64.6776 101.998 67.2107 103.149 69.9105 103.488C72.6104 103.827 75.3496 103.337 77.7648 102.085C80.1801 100.832 82.1574 98.8755 83.4346 96.4742C84.7117 94.0729 85.2285 91.3404 84.9163 88.6389C84.546 85.369 82.9829 82.3501 80.5258 80.1594C78.0687 77.9687 74.89 76.7597 71.5972 76.7637Z" fill="#513842"/>
<g id="Vector_62" style="mix-blend-mode:multiply" opacity="0.2">
<path d="M84.1807 88.7225C74.3402 91.9139 64.9918 90.4239 59.0039 88.7471C59.3526 85.6564 60.8275 82.802 63.1472 80.7283C65.4668 78.6547 68.4691 77.507 71.5813 77.5039C74.6936 77.5009 77.698 78.6428 80.0218 80.7119C82.3455 82.781 83.8259 85.6325 84.1807 88.7225Z" fill="#513842"/>
</g>
<g id="Vector_63" style="mix-blend-mode:multiply" opacity="0.2">
<path d="M88.0116 74.5559C86.8209 75.5393 85.5269 76.5228 84.1295 77.5062C71.2631 86.318 55.1445 83.6676 49.1172 82.2268C53.2699 77.9635 59.9417 75.7508 67.2138 73.3757C77.2412 70.0762 84.0852 70.9367 88.0116 74.5559Z" fill="#513842"/>
</g>
<path id="Vector_64" d="M71.5967 94.9133C70.6566 94.9133 69.7377 94.6347 68.9561 94.1127C68.1745 93.5908 67.5653 92.8489 67.2055 91.981C66.8458 91.113 66.7517 90.1579 66.9351 89.2365C67.1185 88.3151 67.5711 87.4687 68.2359 86.8044C68.9006 86.14 69.7475 85.6876 70.6694 85.5044C71.5914 85.3211 72.5471 85.4151 73.4156 85.7747C74.284 86.1342 75.0264 86.743 75.5486 87.5242C76.0709 88.3053 76.3496 89.2237 76.3496 90.1632C76.3483 91.4226 75.8472 92.63 74.9561 93.5206C74.065 94.4111 72.8568 94.912 71.5967 94.9133Z" fill="#513842"/>
<path id="Vector_65" d="M71.5946 85.782C72.4617 85.782 73.3093 86.039 74.0302 86.5204C74.7511 87.0018 75.313 87.6861 75.6448 88.4867C75.9766 89.2873 76.0635 90.1682 75.8943 91.0181C75.7251 91.868 75.3076 92.6486 74.6945 93.2614C74.0814 93.8741 73.3003 94.2914 72.4499 94.4604C71.5995 94.6295 70.718 94.5427 69.917 94.2111C69.1159 93.8795 68.4312 93.3179 67.9495 92.5974C67.4678 91.8769 67.2107 91.0299 67.2107 90.1633C67.2107 89.0013 67.6726 87.8869 68.4947 87.0653C69.3169 86.2436 70.4319 85.782 71.5946 85.782ZM71.5946 85.0444C70.5816 85.0444 69.5913 85.3447 68.749 85.9071C67.9067 86.4696 67.2502 87.2691 66.8625 88.2044C66.4749 89.1398 66.3734 90.169 66.5711 91.162C66.7687 92.1549 67.2565 93.067 67.9728 93.7829C68.6892 94.4988 69.6018 94.9863 70.5954 95.1839C71.5889 95.3814 72.6188 95.28 73.5547 94.8926C74.4906 94.5051 75.2906 93.849 75.8534 93.0072C76.4162 92.1654 76.7166 91.1757 76.7166 90.1633C76.7153 88.8061 76.1752 87.5049 75.2149 86.5452C74.2547 85.5855 72.9526 85.0457 71.5946 85.0444Z" fill="#513842"/>
<path id="Vector_66" d="M71.4837 95.1099C71.4837 95.711 71.3054 96.2985 70.9713 96.7982C70.6372 97.298 70.1623 97.6875 69.6067 97.9175C69.0511 98.1475 68.4397 98.2077 67.8498 98.0904C67.26 97.9732 66.7182 97.6837 66.2929 97.2587C65.8677 96.8337 65.5781 96.2923 65.4608 95.7028C65.3434 95.1133 65.4037 94.5023 65.6338 93.947C65.864 93.3917 66.2537 92.9171 66.7537 92.5832C67.2538 92.2493 67.8416 92.071 68.443 92.071C69.2495 92.071 70.0229 92.3912 70.5931 92.9611C71.1634 93.531 71.4837 94.304 71.4837 95.1099Z" fill="white"/>
<path id="Vector_67" d="M75.9848 91.7907C78.9278 91.7907 81.3135 89.4065 81.3135 86.4653C81.3135 83.5242 78.9278 81.1399 75.9848 81.1399C73.0419 81.1399 70.6562 83.5242 70.6562 86.4653C70.6562 89.4065 73.0419 91.7907 75.9848 91.7907Z" fill="white"/>
<path id="Vector_68" d="M76.0335 77.5013C66.7343 82.6546 46.0201 83.8937 46.704 75.1361C46.8418 73.2872 47.9144 71.812 49.7497 70.6122C52.7018 68.6748 57.622 67.4405 63.8264 66.4767C80.7963 63.8263 80.5011 51.4692 85.8493 55.821C86.3109 56.1991 86.6923 56.6655 86.9712 57.1929C89.5395 61.8889 85.6033 72.1709 76.0335 77.5013Z" fill="#513842" stroke="#513842" stroke-width="1.5" stroke-linecap="round" stroke-linejoin="round"/>
<g id="Vector_69" style="mix-blend-mode:multiply" opacity="0.2">
<path d="M76.0335 77.5012C66.7343 82.6545 46.0201 83.8937 46.704 75.136C46.8418 73.2871 47.9144 71.8119 49.7497 70.6121C51.9293 73.7346 56.3427 77.6783 64.1216 75.908C74.6312 73.5133 84.2454 65.9505 86.9712 57.1929C89.5395 61.8889 85.6033 72.1709 76.0335 77.5012Z" fill="#513842"/>
</g>
<path id="Vector_70" d="M88.7383 54.9014C88.7383 54.9014 91.8134 58.014 90.0569 63.718" stroke="#513842" stroke-width="1.5" stroke-linecap="round" stroke-linejoin="round"/>
<path id="Vector_71" d="M42.4032 87.4146C42.4032 87.4146 40.2088 94.5889 43.284 101.316" stroke="#513842" stroke-width="1.5" stroke-linecap="round" stroke-linejoin="round"/>
<path id="Vector_72" d="M92.5962 57.1929C92.5962 57.1929 94.6627 62.4593 92.1484 66.5013" stroke="#513842" stroke-width="1.5" stroke-linecap="round" stroke-linejoin="round"/>
<path id="Vector_73" d="M54.3707 146.515C53.4055 146.533 52.451 146.311 51.5924 145.87C50.7339 145.429 49.998 144.782 49.4504 143.988C48.0925 141.981 47.8661 139.07 48.86 136.371C50.961 130.657 48.7469 123.886 47.6988 121.24C45.9325 116.78 45.2978 105.913 47.7874 103.046C48.1108 102.644 48.5196 102.319 48.9843 102.095C49.4489 101.87 49.9578 101.752 50.4739 101.748C53.0767 101.748 56.1813 104.561 57.9674 107.157C59.7534 109.754 61.7264 111.199 63.7043 111.199C64.8484 111.167 65.9492 110.755 66.8336 110.029C67.2 109.722 67.6597 109.549 68.1375 109.537C68.882 109.62 69.6 109.862 70.2433 110.245C71.5697 110.991 73.057 111.404 74.578 111.45C75.1114 111.449 75.6435 111.398 76.1673 111.298C73.379 113.134 70.2089 114.311 66.8976 114.74C66.0633 114.84 65.2236 114.888 64.3833 114.882C62.8433 114.882 61.3574 114.75 59.9158 114.617C58.6808 114.509 57.5147 114.4 56.4716 114.4C54.6659 114.4 52.4911 114.691 51.7088 116.948C50.1934 121.324 53.7852 131.09 58.8284 136.297C60.8211 138.353 61.4509 140.747 60.5554 142.862C59.6599 144.976 57.2785 146.466 54.5822 146.466L54.3707 146.515Z" fill="#B98FF9"/>
<path id="Vector_74" d="M50.4862 102.137C52.9463 102.137 55.9427 104.866 57.6747 107.403C59.5739 110.191 61.6108 111.603 63.7167 111.603C64.9409 111.571 66.1198 111.134 67.0674 110.359C67.3723 110.101 67.7555 109.953 68.1547 109.941C68.8408 110.028 69.5011 110.257 70.0933 110.614C71.4705 111.384 73.0133 111.809 74.5904 111.853C72.1977 113.204 69.5662 114.079 66.841 114.43C66.0245 114.526 65.203 114.572 64.3809 114.568C62.8556 114.568 61.3796 114.435 59.9527 114.307C58.7079 114.194 57.532 114.086 56.4692 114.086C54.5405 114.086 52.2181 114.405 51.3571 116.884C49.8072 121.363 53.4383 131.316 58.5603 136.607C60.4447 138.574 61.045 140.801 60.2135 142.768C59.3426 144.824 57.1285 146.151 54.5798 146.151H54.3683C53.4643 146.167 52.5704 145.96 51.7661 145.547C50.9618 145.134 50.2719 144.53 49.758 143.786C48.4689 141.878 48.2819 139.085 49.2069 136.504C51.3522 130.672 49.1085 123.797 48.0458 121.108C46.3089 116.726 45.6545 106.076 48.0458 103.317C48.3334 102.953 48.6996 102.658 49.117 102.454C49.5344 102.251 49.9923 102.144 50.4567 102.142M50.4567 101.404C49.8896 101.408 49.3306 101.539 48.8201 101.785C48.3096 102.032 47.8602 102.389 47.5045 102.83C44.7738 105.953 45.6693 117.13 47.352 121.383C49.0347 125.636 50.25 131.518 48.5083 136.248C46.7665 140.978 48.6165 146.727 54.3387 146.889H54.6044C60.2036 146.889 63.9529 141.092 59.1163 136.071C54.2797 131.05 50.6092 121.358 52.0804 117.105C52.7151 115.266 54.3289 114.804 56.5086 114.804C58.6882 114.804 61.5075 115.295 64.4252 115.295C65.2801 115.299 66.1345 115.252 66.9837 115.153C71.0556 114.632 74.9005 112.983 78.0837 110.393C76.9896 110.841 75.8219 111.083 74.6396 111.106C71.5497 111.106 69.9113 109.193 68.199 109.193C67.6388 109.204 67.099 109.405 66.6688 109.764C65.8496 110.44 64.8281 110.824 63.7659 110.855C61.7978 110.855 59.9822 109.38 58.3536 106.975C56.5676 104.359 53.3941 101.389 50.5551 101.389L50.4567 101.404Z" fill="#513842"/>
<path id="Vector_75" d="M49.0704 105.308C47.6189 106.321 46.7972 111.327 50.0938 110.988C53.3904 110.649 55.3191 108.037 54.7533 106.218C54.1874 104.399 51.4616 103.641 49.0704 105.308Z" fill="white"/>
<path id="Vector_76" d="M49.7506 137.325C49.3078 139.464 52.7027 142.094 53.5047 138.687C54.3067 135.279 50.4345 134.03 49.7506 137.325Z" fill="white"/>
<path id="Vector_77" d="M52.6402 143.23C52.773 144.597 56.2811 145.502 56.0499 143.23C55.8186 140.959 52.4089 140.846 52.6402 143.23Z" fill="white"/>
<g id="Vector_78" style="mix-blend-mode:multiply" opacity="0.2">
<path d="M154.265 145.276C154.265 145.276 150.516 149.48 145.743 148.226C140.971 146.973 138.644 141.067 143.214 136.184C147.785 131.301 151.313 123.345 149.153 121.073C146.993 118.801 138.466 123.232 129.374 118.123C120.281 113.014 117.29 104.846 118.899 97.2195C120.508 89.5928 157.768 114.145 157.768 114.145L154.265 145.276Z" fill="#E83842"/>
</g>
<path id="Vector_79" d="M141.877 112.758C122.029 114.115 112.557 96.2754 114.816 82.1972C115.308 79.1436 116.493 76.6062 118.407 74.7475C122.299 70.9661 129.232 70.0171 139.407 73.351C148.263 76.2374 156.17 78.8829 159.806 85.2459C160.816 87.0495 161.466 89.0317 161.72 91.0827C163.039 100.721 155.535 111.829 141.877 112.758Z" fill="white" stroke="#513842" stroke-width="1.5" stroke-linecap="round" stroke-linejoin="round"/>
<path id="Vector_80" d="M135.039 103.194C131.582 103.19 128.268 101.816 125.823 99.373C123.379 96.9301 122.004 93.6179 122 90.1632C122.002 89.6703 122.03 89.1779 122.084 88.688C122.449 85.5081 123.974 82.574 126.365 80.4452C128.757 78.3164 131.849 77.1419 135.052 77.1455C138.255 77.1492 141.344 78.3308 143.731 80.465C146.118 82.5992 147.635 85.5368 147.994 88.7175C148.051 89.2071 148.079 89.6997 148.077 90.1927C148.065 93.6423 146.687 96.9469 144.244 99.3835C141.8 101.82 138.49 103.19 135.039 103.194Z" fill="#8F4DF5"/>
<path id="Vector_81" d="M135.038 77.5013C138.153 77.5011 141.159 78.6478 143.482 80.7222C145.804 82.7967 147.281 85.6535 147.629 88.7471C147.683 89.2172 147.709 89.6901 147.708 90.1633C147.708 92.6676 146.965 95.1156 145.573 97.1979C144.181 99.2802 142.202 100.903 139.887 101.861C137.572 102.82 135.024 103.071 132.567 102.582C130.109 102.093 127.851 100.887 126.08 99.1167C124.308 97.3458 123.101 95.0897 122.612 92.6335C122.123 90.1773 122.374 87.6314 123.333 85.3177C124.292 83.0041 125.916 81.0265 127.999 79.6352C130.083 78.2439 132.533 77.5013 135.038 77.5013ZM135.038 76.7637C132.324 76.7647 129.674 77.5894 127.439 79.1287C125.203 80.668 123.489 82.8493 122.521 85.3839C121.553 87.9185 121.379 90.687 122.02 93.323C122.661 95.9591 124.089 98.3383 126.113 100.146C128.137 101.954 130.662 103.105 133.355 103.446C136.048 103.788 138.781 103.305 141.193 102.06C143.605 100.815 145.581 98.8679 146.862 96.4758C148.142 94.0837 148.665 91.3594 148.362 88.6635C147.999 85.3879 146.438 82.3618 143.979 80.1657C141.52 77.9696 138.336 76.7581 135.038 76.7637Z" fill="#513842"/>
<g id="Vector_82" style="mix-blend-mode:multiply" opacity="0.2">
<path d="M122.453 88.7225C132.294 91.9139 141.642 90.4239 147.63 88.7471C147.281 85.6564 145.806 82.802 143.487 80.7283C141.167 78.6547 138.165 77.507 135.052 77.5039C131.94 77.5009 128.936 78.6428 126.612 80.7119C124.288 82.781 122.808 85.6325 122.453 88.7225Z" fill="#513842"/>
</g>
<g id="Vector_83" style="mix-blend-mode:multiply" opacity="0.2">
<path d="M159.821 85.2459C138.28 87.7045 125.492 81.0613 118.422 74.7475C122.314 70.9661 129.246 70.0171 139.421 73.351C148.268 76.2374 156.185 78.8829 159.821 85.2459Z" fill="#513842"/>
</g>
<path id="Vector_84" d="M135.038 94.9133C134.098 94.9133 133.179 94.6347 132.398 94.1127C131.616 93.5908 131.007 92.8489 130.647 91.981C130.287 91.113 130.193 90.1579 130.376 89.2365C130.56 88.3151 131.013 87.4687 131.677 86.8044C132.342 86.14 133.189 85.6876 134.111 85.5044C135.033 85.3211 135.988 85.4151 136.857 85.7747C137.725 86.1342 138.468 86.743 138.99 87.5242C139.512 88.3053 139.791 89.2237 139.791 90.1632C139.79 91.4226 139.289 92.63 138.397 93.5206C137.506 94.4111 136.298 94.912 135.038 94.9133Z" fill="#513842"/>
<path id="Vector_85" d="M135.036 85.782C135.903 85.782 136.751 86.039 137.472 86.5204C138.193 87.0018 138.754 87.6861 139.086 88.4867C139.418 89.2873 139.505 90.1682 139.336 91.0181C139.167 91.868 138.749 92.6486 138.136 93.2614C137.523 93.8741 136.742 94.2914 135.891 94.4604C135.041 94.6295 134.159 94.5427 133.358 94.2111C132.557 93.8795 131.873 93.3179 131.391 92.5974C130.909 91.8769 130.652 91.0299 130.652 90.1633C130.652 89.588 130.765 89.0182 130.986 88.4867C131.206 87.9551 131.529 87.4721 131.936 87.0653C132.343 86.6584 132.826 86.3357 133.358 86.1155C133.89 85.8954 134.46 85.782 135.036 85.782ZM135.036 85.0444C134.023 85.0444 133.033 85.3447 132.19 85.9071C131.348 86.4696 130.692 87.2691 130.304 88.2044C129.916 89.1398 129.815 90.169 130.012 91.162C130.21 92.1549 130.698 93.067 131.414 93.7829C132.131 94.4988 133.043 94.9863 134.037 95.1839C135.03 95.3814 136.06 95.28 136.996 94.8926C137.932 94.5051 138.732 93.849 139.295 93.0072C139.858 92.1654 140.158 91.1757 140.158 90.1633C140.157 88.8061 139.617 87.5049 138.656 86.5452C137.696 85.5855 136.394 85.0457 135.036 85.0444Z" fill="#513842"/>
<path id="Vector_86" d="M135.152 95.1099C135.152 95.711 135.331 96.2985 135.665 96.7982C135.999 97.298 136.474 97.6875 137.029 97.9175C137.585 98.1475 138.196 98.2077 138.786 98.0904C139.376 97.9732 139.918 97.6837 140.343 97.2587C140.768 96.8337 141.058 96.2923 141.175 95.7028C141.293 95.1133 141.232 94.5023 141.002 93.947C140.772 93.3917 140.382 92.9171 139.882 92.5832C139.382 92.2493 138.794 92.071 138.193 92.071C137.387 92.071 136.613 92.3912 136.043 92.9611C135.473 93.531 135.152 94.304 135.152 95.1099Z" fill="white"/>
<path id="Vector_87" d="M130.653 91.7907C133.596 91.7907 135.981 89.4065 135.981 86.4653C135.981 83.5242 133.596 81.1399 130.653 81.1399C127.71 81.1399 125.324 83.5242 125.324 86.4653C125.324 89.4065 127.71 91.7907 130.653 91.7907Z" fill="white"/>
<path id="Vector_88" d="M130.6 77.5013C139.899 82.6546 160.613 83.8937 159.929 75.1361C159.791 73.2872 158.719 71.812 156.883 70.6122C153.931 68.6748 149.011 67.4405 142.807 66.4767C125.837 63.8263 126.132 51.4692 120.784 55.821C120.322 56.1991 119.941 56.6655 119.662 57.1929C117.094 61.8889 121.03 72.1709 130.6 77.5013Z" fill="#513842" stroke="#513842" stroke-width="1.5" stroke-linecap="round" stroke-linejoin="round"/>
<g id="Vector_89" style="mix-blend-mode:multiply" opacity="0.2">
<path d="M130.6 77.5012C139.899 82.6545 160.613 83.8937 159.929 75.136C159.791 73.2871 158.719 71.8119 156.883 70.6121C154.704 73.7346 150.29 77.6783 142.511 75.908C132.002 73.5133 122.388 65.9505 119.662 57.1929C117.094 61.8889 121.03 72.1709 130.6 77.5012Z" fill="#513842"/>
</g>
<path id="Vector_90" d="M117.896 54.9014C117.896 54.9014 114.821 58.014 116.577 63.718" stroke="#513842" stroke-width="1.5" stroke-linecap="round" stroke-linejoin="round"/>
<path id="Vector_91" d="M164.228 87.4146C164.228 87.4146 166.423 94.5889 163.348 101.316" stroke="#513842" stroke-width="1.5" stroke-linecap="round" stroke-linejoin="round"/>
<path id="Vector_92" d="M114.037 57.1929C114.037 57.1929 111.971 62.4593 114.485 66.5013" stroke="#513842" stroke-width="1.5" stroke-linecap="round" stroke-linejoin="round"/>
<path id="Vector_93" d="M152.025 146.52C149.329 146.52 146.982 145.104 146.052 142.916C145.122 140.728 145.787 138.407 147.779 136.351C152.822 131.144 156.414 121.378 154.899 117.002C154.117 114.745 151.947 114.455 150.136 114.455C149.088 114.455 147.922 114.563 146.692 114.671C145.255 114.804 143.769 114.937 142.229 114.937C141.389 114.941 140.549 114.894 139.715 114.794C136.404 114.364 133.234 113.187 130.445 111.352C130.969 111.453 131.501 111.504 132.035 111.504C133.556 111.458 135.043 111.045 136.369 110.3C137.011 109.917 137.727 109.675 138.47 109.591C138.95 109.602 139.411 109.775 139.779 110.083C140.663 110.809 141.764 111.221 142.908 111.254C144.876 111.254 146.82 109.896 148.645 107.212C150.471 104.527 153.536 101.802 156.139 101.802C156.655 101.806 157.164 101.925 157.628 102.149C158.093 102.374 158.502 102.699 158.825 103.101C161.315 105.948 160.68 116.815 158.914 121.295C157.866 123.94 155.652 130.716 157.753 136.425C158.737 139.12 158.52 142.036 157.162 144.042C156.615 144.836 155.879 145.483 155.02 145.924C154.162 146.365 153.207 146.587 152.242 146.569L152.025 146.52Z" fill="#B98FF9"/>
<path id="Vector_94" d="M156.147 101.399V102.137C156.611 102.139 157.069 102.246 157.486 102.449C157.904 102.653 158.27 102.948 158.558 103.312C160.969 106.071 160.314 116.721 158.558 121.103C157.515 123.802 155.271 130.687 157.441 136.499C158.39 139.08 158.179 141.873 156.89 143.781C156.376 144.525 155.686 145.13 154.882 145.542C154.077 145.955 153.183 146.162 152.279 146.146H152.028C149.48 146.146 147.266 144.819 146.395 142.763C145.563 140.796 146.164 138.549 148.048 136.602C153.17 131.311 156.801 121.358 155.251 116.879C154.39 114.42 152.068 114.081 150.139 114.081C149.076 114.081 147.9 114.189 146.656 114.302C145.224 114.43 143.748 114.563 142.227 114.563C141.405 114.567 140.584 114.521 139.767 114.425C137.045 114.075 134.417 113.199 132.028 111.848C133.605 111.804 135.148 111.379 136.525 110.609C137.126 110.248 137.797 110.019 138.493 109.936C138.89 109.949 139.272 110.097 139.575 110.354C140.523 111.129 141.702 111.567 142.926 111.598C145.032 111.598 147.069 110.186 148.968 107.398C150.7 104.861 153.687 102.132 156.157 102.132V101.394M156.157 101.394C153.318 101.394 150.144 104.345 148.363 106.98C146.71 109.4 144.87 110.86 142.951 110.86C141.888 110.829 140.867 110.445 140.048 109.768C139.618 109.41 139.078 109.208 138.518 109.198C136.805 109.198 135.167 111.111 132.077 111.111C130.895 111.088 129.727 110.846 128.633 110.398C131.816 112.988 135.661 114.637 139.733 115.158C140.582 115.256 141.436 115.304 142.291 115.3C145.209 115.3 147.994 114.809 150.208 114.809C152.422 114.809 153.987 115.271 154.636 117.11C156.112 121.363 152.511 131.011 147.6 136.076C142.69 141.141 146.513 146.894 152.112 146.894H152.348C158.071 146.732 159.921 140.993 158.179 136.253C156.437 131.513 157.647 125.636 159.335 121.388C161.023 117.139 161.913 105.958 159.182 102.835C158.826 102.394 158.377 102.038 157.866 101.791C157.356 101.545 156.797 101.414 156.23 101.409L156.157 101.394Z" fill="#513842"/>
<path id="Vector_95" d="M157.562 105.308C159.014 106.321 159.835 111.327 156.539 110.988C153.242 110.649 151.313 108.037 151.879 106.218C152.445 104.399 155.171 103.641 157.562 105.308Z" fill="white"/>
<path id="Vector_96" d="M156.882 137.325C157.325 139.464 153.93 142.094 153.128 138.687C152.326 135.279 156.199 134.03 156.882 137.325Z" fill="white"/>
<path id="Vector_97" d="M153.995 143.23C153.862 144.597 150.354 145.502 150.585 143.23C150.816 140.959 154.226 140.846 153.995 143.23Z" fill="white"/>
<path id="Vector_98" d="M82.448 134.168C79.4122 134.168 76.839 132.353 76.3174 129.855C75.604 126.374 77.2178 122.706 80.8735 119.529C82.4649 118.176 84.2144 117.02 86.0841 116.087C86.3055 115.969 86.5367 115.856 86.768 115.743C88.9575 114.681 90.8714 114.159 92.6132 114.159C94.5813 114.159 96.0869 114.818 97.5334 115.448C98.98 116.077 100.412 116.702 102.301 116.702C104.437 116.702 105.991 115.999 107.497 115.32C109.002 114.641 110.538 113.943 112.609 113.943C113.875 113.961 115.131 114.181 116.329 114.592C117.66 115.035 118.942 115.612 120.157 116.313C121.124 116.864 122.057 117.474 122.951 118.138C127.827 121.712 132.073 127.141 129.884 130.598C129.452 131.363 128.82 131.996 128.056 132.43C127.291 132.863 126.423 133.08 125.544 133.057C124.271 133.011 123.014 132.762 121.82 132.319C120.171 131.768 118.376 130.977 116.25 130.057L115.571 129.762L115.655 129.398L115.517 129.737L115.428 129.698C114.505 129.255 113.5 129.006 112.476 128.965C110.872 128.965 109.898 129.811 108.776 130.785C107.502 131.886 106.06 133.135 103.477 133.135H103.27C101.504 133.091 99.6885 132.201 97.932 131.336C96.1754 130.47 94.3205 129.56 92.5788 129.56C91.8102 129.555 91.053 129.746 90.3794 130.116C89.8312 130.413 89.333 130.795 88.9034 131.247C87.5678 132.678 85.8215 133.661 83.9044 134.06C83.4231 134.139 82.9357 134.175 82.448 134.168Z" fill="#A8433B"/>
<path id="Vector_99" d="M112.621 114.282C113.849 114.3 115.067 114.512 116.228 114.912C117.534 115.349 118.794 115.915 119.987 116.603C120.941 117.149 121.863 117.75 122.747 118.403C127.697 122.037 131.554 127.254 129.586 130.372C129.188 131.084 128.602 131.674 127.891 132.077C127.181 132.479 126.373 132.678 125.557 132.653C124.324 132.606 123.107 132.364 121.95 131.935C120.14 131.331 118.068 130.406 115.731 129.388L115.608 129.334C114.629 128.865 113.564 128.602 112.479 128.562C108.784 128.562 108.114 132.737 103.48 132.737H103.283C99.8387 132.653 96.1534 129.162 92.5813 129.162C91.7509 129.156 90.9327 129.362 90.2049 129.762C89.6287 130.078 89.1057 130.483 88.655 130.962C87.3757 132.342 85.6966 133.287 83.8529 133.666C83.3905 133.753 82.9211 133.798 82.4506 133.799C79.5821 133.799 77.1663 132.117 76.6841 129.782C75.9756 126.34 77.6681 122.814 81.1123 119.8C82.6811 118.46 84.4058 117.314 86.249 116.387C86.4704 116.269 86.6967 116.156 86.9231 116.048C89.27 114.907 91.0856 114.499 92.6109 114.499C96.4142 114.499 98.402 117.041 102.309 117.041C106.663 117.041 108.562 114.282 112.641 114.282M112.641 113.545C110.491 113.545 108.907 114.258 107.376 114.951C105.846 115.644 104.39 116.303 102.333 116.303C100.518 116.303 99.1548 115.708 97.7131 115.084C96.2715 114.459 94.6774 113.761 92.6355 113.761C90.8347 113.761 88.8715 114.292 86.6229 115.384C86.372 115.502 86.1309 115.62 85.9243 115.738C84.0327 116.69 82.2633 117.867 80.6547 119.244C76.8957 122.519 75.2425 126.315 75.9805 129.929C76.5316 132.599 79.2623 134.537 82.4703 134.537C82.9871 134.536 83.5028 134.487 84.0103 134.389C86.0033 133.98 87.8194 132.961 89.2061 131.473C89.6016 131.051 90.0616 130.694 90.569 130.416C91.1906 130.072 91.8905 129.894 92.601 129.9C94.2542 129.9 96.0452 130.78 97.7919 131.635C99.5385 132.491 101.438 133.43 103.283 133.475H103.499C106.22 133.475 107.721 132.171 109.039 131.016C110.107 130.087 111.032 129.285 112.484 129.285C113.461 129.326 114.42 129.566 115.303 129.988L115.392 130.028L115.441 130.052L116.125 130.347C118.235 131.267 120.061 132.063 121.719 132.619C122.951 133.076 124.248 133.332 125.562 133.376C126.503 133.401 127.434 133.169 128.254 132.705C129.073 132.242 129.752 131.564 130.216 130.745C132.529 127.087 128.194 121.467 123.19 117.788C122.282 117.119 121.336 116.503 120.356 115.944C119.12 115.228 117.814 114.64 116.459 114.189C115.225 113.767 113.931 113.543 112.626 113.525L112.641 113.545Z" fill="#513842"/>
<g id="Vector_100" style="mix-blend-mode:multiply" opacity="0.2">
<path d="M85.5044 126.438C87.0099 127.593 88.5746 128.739 90.2032 129.762C89.627 130.078 89.104 130.483 88.6533 130.962C87.374 132.342 85.6949 133.287 83.8512 133.666C80.407 134.32 77.2433 132.491 76.6824 129.782C75.9739 126.34 77.6664 122.814 81.1106 119.8C81.2504 121.078 81.6812 122.308 82.3702 123.394C83.2416 124.573 84.3004 125.601 85.5044 126.438Z" fill="#513842"/>
</g>
<g id="Vector_101" style="mix-blend-mode:multiply" opacity="0.2">
<path d="M129.586 130.372C127.874 133.071 125.359 133.081 121.95 131.941C120.139 131.336 118.068 130.411 115.73 129.393C116.862 128.641 117.893 127.749 118.801 126.738C120.822 124.343 122.179 121.461 122.737 118.379C127.696 122.037 131.554 127.245 129.586 130.372Z" fill="#513842"/>
</g>
<path id="Vector_102" d="M83.8536 134.035C83.7584 134.034 83.6672 133.997 83.5977 133.932C83.5544 133.891 83.5219 133.84 83.5031 133.783C83.4842 133.727 83.4795 133.666 83.4895 133.607C83.7137 132.005 84.2131 130.453 84.9655 129.02C86.268 126.716 88.3677 124.967 90.8698 124.102C92.4385 123.485 94.1046 123.152 95.79 123.119C99.1014 123.119 100.828 124.707 101.478 125.499C102.472 124.278 103.723 123.293 105.143 122.613C106.563 121.932 108.115 121.575 109.69 121.565C110.426 121.566 111.161 121.637 111.884 121.776C115.279 122.43 118.674 124.909 120.741 128.243C121.444 129.358 121.962 130.581 122.276 131.862C122.29 131.925 122.287 131.992 122.267 132.054C122.247 132.116 122.211 132.172 122.162 132.216C122.096 132.278 122.008 132.313 121.916 132.314C121.877 132.321 121.837 132.321 121.798 132.314C120.17 131.773 118.384 130.991 116.312 130.087L115.427 129.703C114.494 129.254 113.479 129.001 112.445 128.961C110.841 128.961 109.867 129.806 108.745 130.78C107.471 131.881 106.029 133.13 103.446 133.13H103.239C101.473 133.086 99.6573 132.191 97.9008 131.331C96.1443 130.47 94.2845 129.551 92.5476 129.551C91.853 129.561 91.1682 129.717 90.5377 130.008C89.9071 130.3 89.3447 130.72 88.887 131.242C87.5514 132.673 85.8051 133.656 83.888 134.055L83.8536 134.035Z" fill="#FB634F"/>
<path id="Vector_103" d="M109.712 121.929C110.425 121.931 111.137 122 111.837 122.135C115.281 122.794 118.534 125.341 120.448 128.429C121.126 129.513 121.624 130.698 121.924 131.94C120.079 131.326 117.988 130.377 115.582 129.339C114.603 128.87 113.537 128.607 112.452 128.567C108.757 128.567 108.088 132.742 103.453 132.742H103.256C99.8122 132.658 96.1269 129.162 92.5549 129.162C91.8083 129.167 91.0714 129.331 90.3929 129.642C89.7144 129.953 89.1096 130.405 88.6187 130.967C87.3394 132.347 85.6603 133.292 83.8165 133.671C84.035 132.109 84.5245 130.596 85.2631 129.202C86.5269 126.96 88.5755 125.264 91.0148 124.442C92.5454 123.829 94.1736 123.496 95.8219 123.458C99.9746 123.458 101.505 126.089 101.505 126.089C102.462 124.81 103.701 123.768 105.126 123.045C106.551 122.322 108.123 121.936 109.722 121.919M109.722 121.181C108.166 121.188 106.629 121.523 105.213 122.167C103.796 122.81 102.532 123.746 101.505 124.914C100.644 124.024 98.8675 122.721 95.8219 122.721C94.0858 122.759 92.3701 123.103 90.7541 123.738C88.1673 124.634 85.9975 126.444 84.653 128.828C83.8719 130.297 83.354 131.891 83.1228 133.539C83.1057 133.644 83.1117 133.752 83.1404 133.855C83.1691 133.958 83.2199 134.053 83.2891 134.134C83.3584 134.216 83.4445 134.281 83.5415 134.326C83.6385 134.371 83.7441 134.394 83.851 134.394H83.9887C85.9817 133.985 87.7978 132.966 89.1845 131.478C89.605 130.99 90.1249 130.596 90.7094 130.324C91.2939 130.052 91.9297 129.907 92.5745 129.9C94.2327 129.9 96.0187 130.785 97.7703 131.64C99.5219 132.496 101.416 133.435 103.261 133.48H103.478C106.199 133.48 107.699 132.176 109.018 131.021C110.086 130.092 111.011 129.29 112.462 129.29C113.446 129.331 114.41 129.574 115.296 130.003L116.192 130.391C118.263 131.296 120.059 132.078 121.697 132.624C121.774 132.649 121.853 132.662 121.934 132.663C122.045 132.663 122.154 132.638 122.254 132.59C122.354 132.541 122.442 132.471 122.511 132.384C122.58 132.297 122.629 132.196 122.653 132.087C122.677 131.979 122.677 131.867 122.652 131.758C122.329 130.437 121.794 129.177 121.068 128.026C118.952 124.609 115.463 122.067 111.97 121.398C111.224 121.252 110.467 121.178 109.707 121.177L109.722 121.181Z" fill="#513842"/>
<g id="Vector_104" style="mix-blend-mode:multiply" opacity="0.2">
<path d="M121.949 131.94C120.104 131.326 118.013 130.377 115.607 129.339C108.807 126.389 109.21 132.885 103.282 132.737C98.5532 132.619 93.382 126.089 88.6537 130.962C87.3744 132.342 85.6953 133.288 83.8516 133.666C84.07 132.104 84.5595 130.591 85.2981 129.197C85.7085 129.369 86.1436 129.475 86.5872 129.511C88.3388 129.654 90.0314 128.966 91.6796 128.336C93.3279 127.707 95.0795 127.117 96.8016 127.461C99.0255 127.903 100.738 129.831 103.006 130.156C104.576 130.382 106.15 129.777 107.528 129C108.905 128.223 110.19 127.249 111.646 126.635C112.694 126.135 113.869 125.963 115.016 126.143C116.492 126.453 117.708 127.564 119.139 128.11C119.565 128.267 120.007 128.373 120.458 128.425C121.142 129.509 121.645 130.696 121.949 131.94Z" fill="#513842"/>
</g>
<path id="Vector_105" d="M103.369 119.052C101.238 119.052 98.8964 119.008 96.4067 118.924C93.9834 118.893 91.5696 118.613 89.2035 118.088C88.0471 117.856 86.9565 117.371 86.0103 116.667C85.9638 116.629 85.9277 116.579 85.9052 116.523C85.8826 116.467 85.8744 116.406 85.8812 116.346C85.8881 116.286 85.9098 116.229 85.9443 116.179C85.9789 116.13 86.0252 116.09 86.0792 116.062C86.3055 115.939 86.5368 115.826 86.768 115.713C87.7926 115.204 88.8635 114.794 89.9662 114.489C90.8279 114.257 91.7159 114.136 92.6083 114.13C94.5764 114.13 96.0869 114.784 97.5285 115.418C98.9702 116.053 100.407 116.672 102.296 116.672C104.432 116.672 105.986 115.969 107.492 115.29C108.998 114.612 110.533 113.914 112.609 113.914C113.22 113.918 113.829 113.973 114.43 114.081C115.072 114.198 115.705 114.362 116.324 114.572C117.655 115.015 118.937 115.592 120.152 116.294C120.208 116.325 120.255 116.371 120.288 116.427C120.32 116.483 120.337 116.546 120.337 116.611C120.337 116.675 120.32 116.739 120.288 116.794C120.255 116.85 120.208 116.896 120.152 116.928C119.168 117.518 117.692 117.97 115.64 118.31C112.707 118.796 108.574 119.052 103.369 119.052Z" fill="white"/>
<path id="Vector_106" d="M112.624 114.283C113.213 114.285 113.801 114.339 114.38 114.445C115.006 114.556 115.623 114.712 116.226 114.912C117.532 115.349 118.791 115.915 119.985 116.603C119.025 117.179 117.525 117.616 115.601 117.936C112.501 118.457 108.274 118.683 103.369 118.683C101.175 118.683 98.8473 118.639 96.4217 118.556C94.0245 118.529 91.6367 118.253 89.2972 117.73C88.1944 117.515 87.1537 117.056 86.2516 116.387C86.473 116.269 86.6993 116.156 86.9256 116.048C87.9291 115.547 88.9787 115.146 90.0598 114.848C90.8909 114.623 91.7475 114.506 92.6085 114.499C96.4168 114.499 98.4045 117.041 102.311 117.041C106.666 117.041 108.565 114.283 112.644 114.283M112.644 113.545C110.489 113.545 108.904 114.263 107.374 114.951C105.844 115.64 104.388 116.304 102.331 116.304C100.515 116.304 99.1524 115.709 97.7108 115.079C96.2691 114.45 94.675 113.761 92.6282 113.761C91.704 113.767 90.7845 113.893 89.8925 114.135C88.7634 114.443 87.6674 114.861 86.6206 115.384C86.3697 115.502 86.1286 115.62 85.9219 115.738C85.8165 115.795 85.7266 115.877 85.6599 115.976C85.5933 116.076 85.5518 116.19 85.5392 116.309C85.5266 116.428 85.5433 116.549 85.5876 116.66C85.632 116.771 85.7028 116.87 85.794 116.948C86.7817 117.694 87.9255 118.206 89.1397 118.447C91.5299 118.978 93.9685 119.262 96.4168 119.293C98.9064 119.377 101.253 119.421 103.389 119.421C108.614 119.421 112.767 119.165 115.743 118.664C117.844 118.315 119.365 117.848 120.383 117.238C120.494 117.171 120.585 117.076 120.648 116.963C120.711 116.85 120.744 116.723 120.742 116.594C120.739 116.465 120.703 116.339 120.638 116.228C120.572 116.117 120.48 116.025 120.368 115.959C119.131 115.247 117.826 114.66 116.472 114.209C115.828 113.999 115.17 113.834 114.503 113.717C113.883 113.605 113.254 113.548 112.624 113.545H112.644Z" fill="#513842"/>
<g id="Vector_107" style="mix-blend-mode:multiply" opacity="0.2">
<path d="M86.928 116.048C87.9314 115.547 88.9811 115.146 90.0622 114.848C89.7465 115.791 89.4917 116.754 89.2995 117.729C88.1967 117.515 87.156 117.056 86.2539 116.387C86.4753 116.269 86.7016 116.156 86.928 116.048Z" fill="#513842"/>
</g>
<g id="Vector_108" style="mix-blend-mode:multiply" opacity="0.2">
<path d="M119.987 116.604C119.028 117.179 117.527 117.616 115.603 117.936C115.458 116.697 115.041 115.505 114.383 114.445C115.008 114.556 115.625 114.712 116.228 114.912C117.534 115.349 118.794 115.915 119.987 116.604Z" fill="#513842"/>
</g>
<path id="Vector_109" d="M32.9561 105.117C32.9561 105.117 31.9967 116.785 39.7017 131.832" stroke="#513842" stroke-width="1.5" stroke-linecap="round" stroke-linejoin="round"/>
<path id="Vector_110" d="M32.9036 102.825C32.7925 101.075 32.8469 99.3183 33.066 97.5784" stroke="#513842" stroke-width="1.5" stroke-linecap="round" stroke-linejoin="round"/>
<path id="Vector_111" d="M141.23 42.3967C141.23 42.3967 149.856 46.7879 158.176 57.3453" stroke="#513842" stroke-width="1.5" stroke-linecap="round" stroke-linejoin="round"/>
<g id="Vector_112" style="mix-blend-mode:multiply" opacity="0.2">
<path d="M162.478 143.24C159.843 146.874 156.879 150.257 153.621 153.345C132.189 173.678 103.376 177.228 76.0095 168.058C63.4253 163.865 52.4456 155.888 44.5742 145.217C54.2917 152.293 69.8642 159.87 92.5071 160.642C122.624 161.665 149.099 150.287 162.478 143.24Z" fill="#E83842"/>
</g>
<g id="Vector_113" style="mix-blend-mode:multiply" opacity="0.2">
<path d="M92.1467 134.65C90.4394 136.164 96.4027 142.203 103.227 141.711C110.051 141.219 115.587 135.732 114.499 134.65C112.015 132.191 106.873 137.423 102.897 137.108C98.9219 136.794 94.2034 132.821 92.1467 134.65Z" fill="#E83842"/>
</g>
<path id="Vector_114" d="M126.598 166.878C126.598 166.878 137.722 164.09 145.787 156.63" stroke="#513842" stroke-width="1.5" stroke-linecap="round" stroke-linejoin="round"/>
<path id="Vector_115" d="M60.3906 43.7834C60.3906 43.7834 69.8719 36.8254 78.1034 34.0422" stroke="#513842" stroke-width="1.5" stroke-linecap="round" stroke-linejoin="round"/>
<path id="Vector_116" d="M80.0156 33.408C80.0156 33.408 83.814 31.7656 86.343 31.3821" stroke="#513842" stroke-width="1.5" stroke-linecap="round" stroke-linejoin="round"/>
<path id="Vector_117" d="M73.3438 128.257C73.3438 128.257 73.7964 134.36 78.323 135.343" stroke="#513842" stroke-width="1.5" stroke-linecap="round" stroke-linejoin="round"/>
<path id="Vector_118" d="M129.227 133.986C129.227 133.986 133.753 131.498 132.243 127.048" stroke="#513842" stroke-width="1.5" stroke-linecap="round" stroke-linejoin="round"/>
</g>
</g>
</g>
<defs>
<clipPath id="clip0_511_1077">
<rect width="206" height="203" fill="white"/>
</clipPath>
</defs>
</svg>
