<svg width="199" height="223" viewBox="0 0 199 223" fill="none" xmlns="http://www.w3.org/2000/svg">
<path d="M174.124 35.2745C179.36 36.0121 184.153 38.6113 187.621 42.5939C191.09 46.5766 193 51.6748 193 56.9506V71.4042C192.974 179.325 127.248 208.397 106.07 215.013C101.825 216.329 97.2794 216.329 93.0343 215.013C71.7516 208.397 6.00002 179.325 6.00002 71.4042V57.0547C5.99305 51.7685 7.90712 46.6591 11.3875 42.6734C14.8678 38.6877 19.6784 36.096 24.9277 35.3786C47.2741 32.453 68.5658 24.1249 86.9511 11.1187C90.647 8.47335 95.0733 7.03478 99.6217 7.00062C104.17 6.96647 108.618 8.3384 112.353 10.9279C130.761 23.7337 151.914 32.0708 174.124 35.2745Z" fill="#507B1C" fill-opacity="0.15"/>
<g clip-path="url(#clip0_506_892)">
<path d="M166.941 42.5687C171.673 43.2357 176.005 45.5861 179.139 49.1877C182.274 52.7892 184 57.3995 184 62.1704V75.2409C183.976 172.834 124.577 199.124 105.438 205.106C101.601 206.297 97.4932 206.297 93.6567 205.106C74.4225 199.124 15 172.834 15 75.2409V62.2645C14.9937 57.4843 16.7235 52.8638 19.8689 49.2595C23.0142 45.6552 27.3618 43.3115 32.1058 42.6628C52.3012 40.0172 71.5434 32.4861 88.159 20.7245C91.4992 18.3324 95.4994 17.0314 99.61 17.0006C103.721 16.9697 107.74 18.2103 111.116 20.552C127.752 32.1323 146.869 39.6716 166.941 42.5687Z" fill="url(#paint0_linear_506_892)"/>
<g clip-path="url(#clip1_506_892)">
<path d="M85.4171 154C84.0632 154.002 82.7223 153.734 81.4715 153.213C80.2207 152.691 79.0846 151.926 78.1286 150.962L58.0179 130.728C56.0838 128.783 54.9968 126.145 54.9961 123.393C54.9954 120.642 56.0809 118.003 58.0139 116.057C59.947 114.111 62.5692 113.018 65.3036 113.017C68.0381 113.016 70.6609 114.108 72.595 116.053L84.4527 127.984L126.555 73.104C127.382 72.0256 128.412 71.1216 129.586 70.4436C130.76 69.7656 132.056 69.327 133.398 69.1527C134.741 68.9784 136.104 69.0718 137.411 69.4277C138.718 69.7836 139.942 70.395 141.014 71.2269C142.086 72.0589 142.984 73.0951 143.658 74.2764C144.332 75.4576 144.768 76.7609 144.941 78.1117C145.114 79.4626 145.022 80.8345 144.668 82.1492C144.314 83.4639 143.706 84.6956 142.88 85.7741L93.6147 150.023C92.7213 151.192 91.5896 152.155 90.2957 152.848C89.0018 153.541 87.5756 153.947 86.1128 154.04L85.4171 154Z" fill="white"/>
</g>
</g>
<defs>
<linearGradient id="paint0_linear_506_892" x1="99.5" y1="17" x2="99.5" y2="205.999" gradientUnits="userSpaceOnUse">
<stop stop-color="#C9E385"/>
<stop offset="0.219437" stop-color="#A2CF78"/>
<stop offset="0.618703" stop-color="#396024"/>
<stop offset="1" stop-color="#A2D077"/>
</linearGradient>
<clipPath id="clip0_506_892">
<rect width="169" height="189" fill="white" transform="translate(15 17)"/>
</clipPath>
<clipPath id="clip1_506_892">
<rect width="90" height="85" fill="white" transform="translate(55 69)"/>
</clipPath>
</defs>
</svg>
